<svg xmlns="http://www.w3.org/2000/svg" width="27.5" height="23.584" viewBox="0 0 27.5 23.584"><defs><style>.a{fill:#fff;}</style></defs><g transform="translate(0 -31.842)"><g transform="translate(0 31.842)"><path class="a" d="M25.847,41.7a1.965,1.965,0,0,0-.34-.025H6.106l.423-.2a3.935,3.935,0,0,0,1.112-.787l5.44-5.44a2.036,2.036,0,0,0,.285-2.607,1.967,1.967,0,0,0-2.951-.256L.577,42.229a1.968,1.968,0,0,0,0,2.783l0,0,9.838,9.838a1.968,1.968,0,0,0,2.951-.2,2.036,2.036,0,0,0-.285-2.607L7.65,46.6a3.935,3.935,0,0,0-.984-.718l-.59-.266H25.4a2.036,2.036,0,0,0,2.076-1.653A1.968,1.968,0,0,0,25.847,41.7Z" transform="translate(0 -31.842)"/></g></g></svg>