<?xml version="1.0" encoding="iso-8859-1"?>
<!-- Generator: Adobe Illustrator 19.0.0, SVG Export Plug-In . SVG Version: 6.00 Build 0)  -->
<svg version="1.1" id="Layer_1" fill="#F5919F" xmlns="http://www.w3.org/2000/svg" xmlns:xlink="http://www.w3.org/1999/xlink" x="0px" y="0px"
	 viewBox="0 0 512.002 512.002" style="enable-background:new 0 0 512.002 512.002;" xml:space="preserve">
<g>
	<g>
		<path d="M297.71,0C179.361,0,83.419,95.941,83.419,214.291c0,50.266,17.313,96.482,46.293,133.03l-48.636,48.636l-40.794-40.794
			L5.315,390.13l40.794,40.794l-46.109,46.11l34.967,34.967l46.109-46.109l40.796,40.796l34.967-34.967l-40.794-40.796
			l48.636-48.636c36.547,28.979,82.764,46.292,133.028,46.292c118.349,0,214.291-95.941,214.291-214.291S416.06,0,297.71,0z
			 M297.71,362.646c-81.935,0-148.355-66.42-148.355-148.355S215.775,65.936,297.71,65.936s148.355,66.42,148.355,148.355
			S379.645,362.646,297.71,362.646z"/>
	</g>
</g>
<g>
</g>
<g>
</g>
<g>
</g>
<g>
</g>
<g>
</g>
<g>
</g>
<g>
</g>
<g>
</g>
<g>
</g>
<g>
</g>
<g>
</g>
<g>
</g>
<g>
</g>
<g>
</g>
<g>
</g>
</svg>
