<svg xmlns="http://www.w3.org/2000/svg" width="32" height="32" viewBox="0 0 32 32"><defs><style>.a{fill:#fff;}</style></defs><g transform="translate(-0.109 0)"><path class="a" d="M22.4,18.989A11.884,11.884,0,0,0,19.478,2.213,12.432,12.432,0,0,0,2.367,5.082,11.883,11.883,0,0,0,5.293,21.856a12.48,12.48,0,0,0,13.335.54l9.05,8.819a2.605,2.605,0,0,0,3.632.091,2.484,2.484,0,0,0,.094-3.56c-.031-.032-.061-.062-.094-.092Zm-10.025.822a7.841,7.841,0,0,1-7.919-7.758A7.84,7.84,0,0,1,12.372,4.29a7.839,7.839,0,0,1,7.918,7.746,7.841,7.841,0,0,1-7.906,7.775Zm0,0" transform="translate(0 0)"/></g></svg>