<svg xmlns="http://www.w3.org/2000/svg" width="138.29" height="140.66" viewBox="0 0 138.29 140.66"><defs><style>.a{fill:#5F4838;}</style></defs><path class="a" d="M41.642,135.134A70.64,70.64,0,0,1,4.04,97.706,69.872,69.872,0,0,1,.181,85.727H28.954a43.138,43.138,0,0,0,80.381,0h28.773a69.93,69.93,0,0,1-10.373,23.925,70.951,70.951,0,0,1-86.093,25.481Zm1.84-64.8c0-13.561,11.231-24.553,25.085-24.553S93.652,56.77,93.652,70.33,82.422,94.883,68.567,94.883,43.482,83.891,43.482,70.33ZM28.641,55.765H0A69.894,69.894,0,0,1,10.554,31.008a70.822,70.822,0,0,1,117.181,0A69.918,69.918,0,0,1,138.29,55.764H109.649a43.136,43.136,0,0,0-81.007,0h0Z"/></svg>