<svg xmlns="http://www.w3.org/2000/svg" width="139.007" height="140.389" viewBox="0 0 139.007 140.389"><defs><style>.a{fill:#2ea88b;}</style></defs><path class="a" d="M41.857,134.873a71.078,71.078,0,0,1-31.249-25.432A69.519,69.519,0,0,1,.182,85.562H29.1a43.475,43.475,0,0,0,80.8,0h28.922A69.541,69.541,0,0,1,128.4,109.441a71.656,71.656,0,0,1-86.54,25.432Zm1.85-64.679C43.707,56.66,55,45.689,68.922,45.689S94.138,56.66,94.138,70.195,82.849,94.7,68.922,94.7,43.707,83.729,43.707,70.195ZM28.79,55.658H0A69.5,69.5,0,0,1,10.609,30.948,71.46,71.46,0,0,1,119.724,20.559,70.845,70.845,0,0,1,128.4,30.948a69.525,69.525,0,0,1,10.609,24.708h-28.79a43.466,43.466,0,0,0-81.427,0h0Z"/></svg>